[Header]
FileType HTR
DataType HTRS
FileVersion 1
NumSegments 64
NumFrames 3
DataFrameRate 30
EulerRotationOrder ZYX
CalibrationUnits mm
RotationUnits Degrees
GlobalAxisofGravity Y
BoneLengthAxis Y
ScaleFactor 1.0
[SegmentNames&Hierarchy]
Hips	GLOBAL
Spine	Hips
Spine1	Spine
Spine2	Spine1
Neck	Spine2
Head	Neck
LeftEye	Head
RightEye	Head
LeftShoulder	Spine2
LeftArm	LeftShoulder
LeftForeArm	LeftArm
LeftHand	LeftForeArm
LeftHandThumb1	LeftHand
LeftHandThumb2	LeftHandThumb1
LeftHandThumb3	LeftHandThumb2
LeftHandThumb4	LeftHandThumb3
LeftHandIndex1	LeftHand
LeftHandIndex2	LeftHandIndex1
LeftHandIndex3	LeftHandIndex2
LeftHandIndex4	LeftHandIndex3
LeftHandMiddle1	LeftHand
LeftHandMiddle2	LeftHandMiddle1
LeftHandMiddle3	LeftHandMiddle2
LeftHandMiddle4	LeftHandMiddle3
LeftHandRing1	LeftHand
LeftHandRing2	LeftHandRing1
LeftHandRing3	LeftHandRing2
LeftHandRing4	LeftHandRing3
LeftHandPinky1	LeftHand
LeftHandPinky2	LeftHandPinky1
LeftHandPinky3	LeftHandPinky2
LeftHandPinky4	LeftHandPinky3
RightShoulder	Spine2
RightArm	RightShoulder
RightForeArm	RightArm
RightHand	RightForeArm
RightHandPinky1	RightHand
RightHandPinky2	RightHandPinky1
RightHandPinky3	RightHandPinky2
RightHandPinky4	RightHandPinky3
RightHandRing1	RightHand
RightHandRing2	RightHandRing1
RightHandRing3	RightHandRing2
RightHandRing4	RightHandRing3
RightHandMiddle1	RightHand
RightHandMiddle2	RightHandMiddle1
RightHandMiddle3	RightHandMiddle2
RightHandMiddle4	RightHandMiddle3
RightHandIndex1	RightHand
RightHandIndex2	RightHandIndex1
RightHandIndex3	RightHandIndex2
RightHandIndex4	RightHandIndex3
RightHandThumb1	RightHand
RightHandThumb2	RightHandThumb1
RightHandThumb3	RightHandThumb2
RightHandThumb4	RightHandThumb3
LeftUpLeg	Hips
LeftLeg	LeftUpLeg
LeftFoot	LeftLeg
LeftToeBase	LeftFoot
RightUpLeg	Hips
RightLeg	RightUpLeg
RightFoot	RightLeg
RightToeBase	RightFoot
[BasePosition]
Hips	0	0	0	0	0	0	1
Spine	0	0	0	0	0	0	1
Spine1	0	0	0	0	0	0	1
Spine2	0	0	0	0	0	0	1
Neck	0	0	0	0	0	0	1
Head	0	0	0	0	0	0	1
LeftEye	0	0	0	0	0	0	1
RightEye	0	0	0	0	0	0	1
LeftShoulder	0	0	0	0	0	0	1
LeftArm	0	0	0	0	0	0	1
LeftForeArm	0	0	0	0	0	0	1
LeftHand	0	0	0	0	0	0	1
LeftHandThumb1	0	0	0	0	0	0	1
LeftHandThumb2	0	0	0	0	0	0	1
LeftHandThumb3	0	0	0	0	0	0	1
LeftHandThumb4	0	0	0	0	0	0	1
LeftHandIndex1	0	0	0	0	0	0	1
LeftHandIndex2	0	0	0	0	0	0	1
LeftHandIndex3	0	0	0	0	0	0	1
LeftHandIndex4	0	0	0	0	0	0	1
LeftHandMiddle1	0	0	0	0	0	0	1
LeftHandMiddle2	0	0	0	0	0	0	1
LeftHandMiddle3	0	0	0	0	0	0	1
LeftHandMiddle4	0	0	0	0	0	0	1
LeftHandRing1	0	0	0	0	0	0	1
LeftHandRing2	0	0	0	0	0	0	1
LeftHandRing3	0	0	0	0	0	0	1
LeftHandRing4	0	0	0	0	0	0	1
LeftHandPinky1	0	0	0	0	0	0	1
LeftHandPinky2	0	0	0	0	0	0	1
LeftHandPinky3	0	0	0	0	0	0	1
LeftHandPinky4	0	0	0	0	0	0	1
RightShoulder	0	0	0	0	0	0	1
RightArm	0	0	0	0	0	0	1
RightForeArm	0	0	0	0	0	0	1
RightHand	0	0	0	0	0	0	1
RightHandPinky1	0	0	0	0	0	0	1
RightHandPinky2	0	0	0	0	0	0	1
RightHandPinky3	0	0	0	0	0	0	1
RightHandPinky4	0	0	0	0	0	0	1
RightHandRing1	0	0	0	0	0	0	1
RightHandRing2	0	0	0	0	0	0	1
RightHandRing3	0	0	0	0	0	0	1
RightHandRing4	0	0	0	0	0	0	1
RightHandMiddle1	0	0	0	0	0	0	1
RightHandMiddle2	0	0	0	0	0	0	1
RightHandMiddle3	0	0	0	0	0	0	1
RightHandMiddle4	0	0	0	0	0	0	1
RightHandIndex1	0	0	0	0	0	0	1
RightHandIndex2	0	0	0	0	0	0	1
RightHandIndex3	0	0	0	0	0	0	1
RightHandIndex4	0	0	0	0	0	0	1
RightHandThumb1	0	0	0	0	0	0	1
RightHandThumb2	0	0	0	0	0	0	1
RightHandThumb3	0	0	0	0	0	0	1
RightHandThumb4	0	0	0	0	0	0	1
LeftUpLeg	0	0	0	0	0	0	1
LeftLeg	0	0	0	0	0	0	1
LeftFoot	0	0	0	0	0	0	1
LeftToeBase	0	0	0	0	0	0	1
RightUpLeg	0	0	0	0	0	0	1
RightLeg	0	0	0	0	0	0	1
RightFoot	0	0	0	0	0	0	1
RightToeBase	0	0	0	0	0	0	1
[Hips]
27	1529.730103	931.6628418	9.603598595	-8.939660072	76.89486694	-15.87925053	1.0
28	1585.477539	943.0343018	10.29688454	-11.15389729	73.45418549	-18.321661	1.0
29	1637.967773	956.0706787	10.5136385	-10.45068264	70.74423981	-17.77482605	1.0
[Spine]
27	0	101.8159943	1.315000057	4.460298061	-18.11587334	6.46799469	1.0
28	0	101.8159943	1.315000057	4.8920784	-15.3791666	7.017385483	1.0
29	0	101.8159943	1.315000057	5.372853756	-12.65512276	6.732558727	1.0
[Spine1]
27	0	100.8349991	-10.00800037	3.584854126	-6.810480118	2.352746964	1.0
28	0	100.8349991	-10.00800037	3.785046816	-7.022557735	2.616710901	1.0
29	0	100.8349991	-10.00800037	3.9266994	-7.06865406	2.590466261	1.0
[Spine2]
27	0	91	-13.73399925	3.508760452	-6.851381779	2.318965197	1.0
28	0	91	-13.73399925	3.714206457	-7.060789108	2.579684258	1.0
29	0	91	-13.73399925	3.865186691	-7.099144936	2.563054562	1.0
[Neck]
27	0	166.7169952	-25.16200066	4.057704926	-5.477976322	-1.785953879	1.0
28	0	166.7169952	-25.16200066	4.331668377	-5.539445877	-1.330751419	1.0
29	0	166.7169952	-25.16200066	4.47573185	-5.673932552	-0.9767119884	1.0
[Head]
27	0	96.17900085	16.84999847	-14.04878426	-32.7662468	11.19239902	1.0
28	0	96.17900085	16.84999847	-14.03955078	-32.58187866	11.1024313	1.0
29	0	96.17900085	16.84999847	-13.59449291	-32.94923782	11.35609722	1.0
[LeftEye]
27	30.6760006	64.09500122	92.83599854	0	0	0	1.0
28	30.6760006	64.09500122	92.83599854	0	0	0	1.0
29	30.6760006	64.09500122	92.83599854	0	0	0	1.0
[RightEye]
27	-30.6760006	64.09500122	92.83499908	0	0	0	1.0
28	-30.6760006	64.09500122	92.83499908	0	0	0	1.0
29	-30.6760006	64.09500122	92.83499908	0	0	0	1.0
[LeftShoulder]
27	45.70400238	109.4599991	-26.28000069	-1.047682047	-9.283724785	-10.06527805	1.0
28	45.70400238	109.4599991	-26.28000069	-0.4330820441	-9.131171227	-10.02499008	1.0
29	45.70400238	109.4599991	-26.28000069	0.2050019503	-8.995256424	-9.980701447	1.0
[LeftArm]
27	105.923996	-5.24600029	-22.32099915	37.97571564	-29.98678398	-65.3534317	1.0
28	105.923996	-5.24600029	-22.32099915	37.39047623	-29.46961021	-65.8800354	1.0
29	105.923996	-5.24600029	-22.32099915	36.68205643	-28.87487602	-64.99269104	1.0
[LeftForeArm]
27	278.414978	-0.0009999999311	0	-1.183723874e-08	-18.19720078	-0.0002170699881	1.0
28	278.414978	-0.0009999999311	0	-4.19892018e-07	-16.33884621	-0.0002057136444	1.0
29	278.414978	-0.0009999999311	0	-7.254269576e-07	-14.76006126	-0.0001957595523	1.0
[LeftHand]
27	283.2879944	0	0	-7.773572922	-7.098697662	15.34152603	1.0
28	283.2879944	0	0	-8.114443779	-4.586399078	12.3675766	1.0
29	283.2879944	0	0	-7.198489189	-2.285598755	9.551765442	1.0
[LeftHandThumb1]
27	24.6609993	-15.75	26.8239994	0.9464570284	1.151123047	0.2541034818	1.0
28	24.6609993	-15.75	26.8239994	0.9464570284	1.151123047	0.2541034818	1.0
29	24.6609993	-15.75	26.8239994	0.9464570284	1.151123047	0.2541034818	1.0
[LeftHandThumb2]
27	32.29800034	-18.64699936	18.64699936	17.50583839	9.472600937	19.46019745	1.0
28	32.29800034	-18.64699936	18.64699936	16.65978813	7.177604198	18.79087639	1.0
29	32.29800034	-18.64699936	18.64699936	15.80774498	3.48203373	17.8274231	1.0
[LeftHandThumb3]
27	26.52600098	-15.31499958	15.31499958	-5.063643456	-17.42501831	25.57239532	1.0
28	26.52600098	-15.31499958	15.31499958	-4.370353699	-15.9062233	24.44668579	1.0
29	26.52600098	-15.31499958	15.31499958	-3.661704063	-14.41868687	23.06967545	1.0
[LeftHandThumb4]
27	19.54599953	-11.28499985	11.28499985	0	0	0	1.0
28	19.54599953	-11.28499985	11.28499985	0	0	0	1.0
29	19.54599953	-11.28499985	11.28499985	0	0	0	1.0
[LeftHandIndex1]
27	91.09299469	-5.170999527	22.60099792	-1.266093612	1.882817507	-27.7734623	1.0
28	91.09299469	-5.170999527	22.60099792	-1.273145795	1.148917437	-26.70562172	1.0
29	91.09299469	-5.170999527	22.60099792	-1.347645044	0.157094419	-25.82217789	1.0
[LeftHandIndex2]
27	36.76399994	0	0	-0.1287307441	1.219871998	-12.04747486	1.0
28	36.76399994	0	0	-0.1280905604	1.216878176	-12.01742649	1.0
29	36.76399994	0	0	-0.1278081834	1.215560675	-12.00419903	1.0
[LeftHandIndex3]
27	28.83100128	0	0	-0.1339292377	1.243983746	-12.28936672	1.0
28	28.83100128	0	0	-0.1332759559	1.240980506	-12.25923252	1.0
29	28.83100128	0	0	-0.1329903603	1.239655256	-12.24591637	1.0
[LeftHandIndex4]
27	23.92700005	0	0	0	0	0	1.0
28	23.92700005	0	0	0	0	0	1.0
29	23.92700005	0	0	0	0	0	1.0
[LeftHandMiddle1]
27	95.33399963	0	0	-2.227624178	4.485109329	-33.63012314	1.0
28	95.33399963	0	0	-2.130436659	4.370093822	-32.55428314	1.0
29	95.33399963	0	0	-2.046718597	4.215914249	-31.62171173	1.0
[LeftHandMiddle2]
27	36.98199844	0	0	-0.302477777	1.855578184	-18.51511192	1.0
28	36.98199844	0	0	-0.3025197089	1.85570693	-18.51644325	1.0
29	36.98199844	0	0	-0.3033535779	1.858195543	-18.54222298	1.0
[LeftHandMiddle3]
27	29.50900078	0	0	-0.1088070422	1.12248826	-11.07275581	1.0
28	29.50900078	0	0	-0.1088323668	1.122621417	-11.07405853	1.0
29	29.50900078	0	0	-0.1093377024	1.125199676	-11.09982109	1.0
[LeftHandMiddle4]
27	28.3390007	0	0	0	0	0	1.0
28	28.3390007	0	0	0	0	0	1.0
29	28.3390007	0	0	0	0	0	1.0
[LeftHandRing1]
27	91.04499817	-0.4390000105	-18.65100098	-2.253475189	7.862303734	-33.95009232	1.0
28	91.04499817	-0.4390000105	-18.65100098	-2.22137332	7.598041058	-33.59156418	1.0
29	91.04499817	-0.4390000105	-18.65100098	-2.17512989	7.316421032	-33.07567978	1.0
[LeftHandRing2]
27	31.54000092	0	0	-0.4644924402	2.282755613	-23.00006485	1.0
28	31.54000092	0	0	-0.4635685682	2.280581474	-22.97681618	1.0
29	31.54000092	0	0	-0.4626195431	2.278351068	-22.95299149	1.0
[LeftHandRing3]
27	29.37700081	0	0	-0.3331495225	1.944712639	-19.44002724	1.0
28	29.37700081	0	0	-0.3324103057	1.942619801	-19.41825867	1.0
29	29.37700081	0	0	-0.331653893	1.940475702	-19.39597511	1.0
[LeftHandRing4]
27	26.47500038	0	0	0	0	0	1.0
28	26.47500038	0	0	0	0	0	1.0
29	26.47500038	0	0	0	0	0	1.0
[LeftHandPinky1]
27	80.77799988	-4.887000084	-38.06099701	-2.707150698	3.615899801	-38.75711441	1.0
28	80.77799988	-4.887000084	-38.06099701	-2.66622901	4.116691113	-38.32019424	1.0
29	80.77799988	-4.887000084	-38.06099701	-2.593515635	4.837710857	-37.55158997	1.0
[LeftHandPinky2]
27	36	0	0	-0.4813954234	2.322152376	-23.42077255	1.0
28	36	0	0	-0.4859202802	2.332559824	-23.53218651	1.0
29	36	0	0	-0.4907092154	2.343517065	-23.64961815	1.0
[LeftHandPinky3]
27	21.14200211	0	0	-0.2060833126	1.538219094	-15.26092815	1.0
28	21.14200211	0	0	-0.2091670632	1.549486041	-15.3755064	1.0
29	21.14200211	0	0	-0.2124243826	1.561269641	-15.49541092	1.0
[LeftHandPinky4]
27	19.75699997	0	0	0	0	0	1.0
28	19.75699997	0	0	0	0	0	1.0
29	19.75699997	0	0	0	0	0	1.0
[RightShoulder]
27	-45.70000076	109.4620056	-26.28000069	1.042964578	-5.060134888	8.563142776	1.0
28	-45.70000076	109.4620056	-26.28000069	0.9143785834	-4.340375423	9.069548607	1.0
29	-45.70000076	109.4620056	-26.28000069	0.7643588185	-3.693907976	9.589295387	1.0
[RightArm]
27	-105.9280014	-5.248000145	-22.32099915	15.52780533	-0.3275568187	61.54214478	1.0
28	-105.9280014	-5.248000145	-22.32099915	15.63299084	1.418319821	61.38834	1.0
29	-105.9280014	-5.248000145	-22.32099915	15.51526546	3.083981991	61.92269516	1.0
[RightForeArm]
27	-278.414978	0	0	1.368106552e-07	5.747595787	3.684943067e-06	1.0
28	-278.414978	0	0	-8.157974776e-07	5.760136127	2.877920451e-06	1.0
29	-278.414978	0	0	-2.601603001e-06	6.379301548	3.238108093e-07	1.0
[RightHand]
27	-283.2879944	0	0.0009999999311	7.256498337	-3.27356863	-5.935407162	1.0
28	-283.2879944	0	0.0009999999311	6.949153423	-1.57653141	-5.431132793	1.0
29	-283.2879944	0	0.0009999999311	6.320707321	1.074033499	-3.558853626	1.0
[RightHandPinky1]
27	-80.76699829	-4.885000229	-38.06000137	-1.710084319	-1.266907811	29.72731018	1.0
28	-80.76699829	-4.885000229	-38.06000137	-1.761898875	-0.930345118	30.43138313	1.0
29	-80.76699829	-4.885000229	-38.06000137	-1.761797905	-1.084167123	30.42362976	1.0
[RightHandPinky2]
27	-36	0	0.0009999999311	-0.3754948676	-1.82825458	23.22966766	1.0
28	-36	0	0.0009999999311	-0.3827368617	-1.844999194	23.45518875	1.0
29	-36	0	0.0009999999311	-0.3902300596	-1.862300396	23.68811989	1.0
[RightHandPinky3]
27	-21.14200211	0	0	-0.4343421459	-1.959813237	24.9913063	1.0
28	-21.14200211	0	0	-0.4380705655	-1.967747688	25.09954834	1.0
29	-21.14200211	0	0	-0.4430804551	-1.978393435	25.2449913	1.0
[RightHandPinky4]
27	-19.75699997	0	0	0	0	0	1.0
28	-19.75699997	0	0	0	0	0	1.0
29	-19.75699997	0	0	0	0	0	1.0
[RightHandRing1]
27	-91.03599548	-0.4390000105	-18.65100098	-1.952568769	-2.290693283	33.07427597	1.0
28	-91.03599548	-0.4390000105	-18.65100098	-2.010194063	-2.084543467	33.81830597	1.0
29	-91.03599548	-0.4390000105	-18.65100098	-2.01757288	-2.111195803	33.91161346	1.0
[RightHandRing2]
27	-31.54000092	0	0	-0.6778577566	-2.414011478	31.3657856	1.0
28	-31.54000092	0	0	-0.6834520698	-2.423143625	31.49823189	1.0
29	-31.54000092	0	0	-0.6910526752	-2.435480356	31.67728806	1.0
[RightHandRing3]
27	-29.37700081	0	0	-0.7543319464	-2.535114288	33.13678741	1.0
28	-29.37700081	0	0	-0.7602760196	-2.544169903	33.27096176	1.0
29	-29.37700081	0	0	-0.7683631778	-2.556421518	33.45265198	1.0
[RightHandRing4]
27	-26.47500038	0	0	0	0	0	1.0
28	-26.47500038	0	0	0	0	0	1.0
29	-26.47500038	0	0	0	0	0	1.0
[RightHandMiddle1]
27	-95.32500458	0	0	-2.217464209	-1.531607509	36.4393158	1.0
28	-95.32500458	0	0	-2.308626652	-1.326448202	37.5735054	1.0
29	-95.32500458	0	0	-2.341241121	-1.232167482	37.97750473	1.0
[RightHandMiddle2]
27	-36.98199844	0	0	-0.440130353	-1.972126245	25.15946388	1.0
28	-36.98199844	0	0	-0.4389966428	-1.96974349	25.12688446	1.0
29	-36.98199844	0	0	-0.4390384257	-1.969824433	25.12786484	1.0
[RightHandMiddle3]
27	-29.50900078	0	0	-0.3069250584	-1.661395311	20.95750809	1.0
28	-29.50900078	0	0	-0.3059756458	-1.658908248	20.92457008	1.0
29	-29.50900078	0	0	-0.3060019612	-1.658990264	20.92562485	1.0
[RightHandMiddle4]
27	-28.3390007	0	0.0009999999311	0	0	0	1.0
28	-28.3390007	0	0.0009999999311	0	0	0	1.0
29	-28.3390007	0	0.0009999999311	0	0	0	1.0
[RightHandIndex1]
27	-91.08300018	-5.167999744	22.60099792	-1.320616007	6.521934509	25.6931076	1.0
28	-91.08300018	-5.167999744	22.60099792	-1.430975318	6.723453999	26.95051956	1.0
29	-91.08300018	-5.167999744	22.60099792	-1.451782465	6.860266209	27.1620369	1.0
[RightHandIndex2]
27	-36.76399994	0	0	-0.5589801073	-2.207390785	28.41810989	1.0
28	-36.76399994	0	0	-0.5601240396	-2.209502935	28.44773483	1.0
29	-36.76399994	0	0	-0.5635166764	-2.21573925	28.53540802	1.0
[RightHandIndex3]
27	-28.83100128	0	0	-0.2272529602	-1.434218526	18.00629425	1.0
28	-28.83100128	0	0	-0.2280015498	-1.43652904	18.03630829	1.0
29	-28.83100128	0	0	-0.2302305102	-1.443353057	18.12500191	1.0
[RightHandIndex4]
27	-23.92700005	0	0	0	0	0	1.0
28	-23.92700005	0	0	0	0	0	1.0
29	-23.92700005	0	0	0	0	0	1.0
[RightHandThumb1]
27	-24.64799881	-15.72700024	26.82600021	30.15343666	21.14214134	-10.25145817	1.0
28	-24.64799881	-15.72700024	26.82600021	30.15343666	21.14214134	-10.25145817	1.0
29	-24.64799881	-15.72700024	26.82600021	30.15343666	21.14214134	-10.25145817	1.0
[RightHandThumb2]
27	-32.29800034	-18.64699936	18.64699936	13.99039555	-19.06064606	1.90914762	1.0
28	-32.29800034	-18.64699936	18.64699936	13.98357868	-18.05197525	2.01541996	1.0
29	-32.29800034	-18.64699936	18.64699936	13.60413647	-18.85354233	1.968482494	1.0
[RightHandThumb3]
27	-26.52600098	-15.31399918	15.31399918	-11.9625082	-13.40138435	-10.40457153	1.0
28	-26.52600098	-15.31399918	15.31399918	-11.97453976	-13.37250614	-10.41240025	1.0
29	-26.52600098	-15.31399918	15.31399918	-11.96953773	-13.38662815	-10.40838337	1.0
[RightHandThumb4]
27	-19.54599953	-11.28499985	11.28499985	0	0	0	1.0
28	-19.54599953	-11.28499985	11.28499985	0	0	0	1.0
29	-19.54599953	-11.28499985	11.28499985	0	0	0	1.0
[LeftUpLeg]
27	82.07800293	-67.51699829	-15.99599934	10.13408566	16.05404282	3.545253515	1.0
28	82.07800293	-67.51699829	-15.99599934	0.5442310572	15.76709652	3.522516489	1.0
29	82.07800293	-67.51699829	-15.99599934	-8.934361458	15.01979446	2.699074745	1.0
[LeftLeg]
27	0	-443.7049866	2.845999956	34.51898956	-7.150768757	-6.260886669	1.0
28	0	-443.7049866	2.845999956	51.02045441	-5.231777191	-8.052865028	1.0
29	0	-443.7049866	2.845999956	62.73735809	-3.723395824	-9.199016571	1.0
[LeftFoot]
27	0	-444.2789917	-29.8219986	9.944877625	-19.77555847	-0.5720437765	1.0
28	0	-444.2789917	-29.8219986	17.32370758	-14.06444454	-11.48928547	1.0
29	0	-444.2789917	-29.8219986	12.91122627	-7.006806374	-10.80691528	1.0
[LeftToeBase]
27	0	-87.28699493	107.1060028	-28.11930084	3.277300596	9.144472122	1.0
28	0	-87.28699493	107.1060028	-17.36391068	1.444213629	4.11854744	1.0
29	0	-87.28699493	107.1060028	-10.778615	-0.2503827512	-0.7079621553	1.0
[RightUpLeg]
27	-82.07800293	-67.51699829	-15.99599934	-45.78923416	0.9390073419	7.514288425	1.0
28	-82.07800293	-67.51699829	-15.99599934	-42.71643829	1.047788024	9.186835289	1.0
29	-82.07800293	-67.51699829	-15.99599934	-39.04432297	0.9432200193	9.510105133	1.0
[RightLeg]
27	0	-443.7049866	2.861999989	34.59516525	-5.038131237	-3.367797136	1.0
28	0	-443.7049866	2.861999989	35.98051071	-2.547314882	-1.756138563	1.0
29	0	-443.7049866	2.861999989	35.6950798	-0.3694362044	-0.1808875352	1.0
[RightFoot]
27	0	-444.2770081	-29.83799934	4.474174023	0.8750835657	-4.513973713	1.0
28	0	-444.2770081	-29.83799934	0.166772157	0.813324213	-4.236112118	1.0
29	0	-444.2770081	-29.83799934	-2.980988264	0.686501205	-3.863251686	1.0
[RightToeBase]
27	0	-87.28699493	107.1060028	-6.105576515	8.486556908e-06	-1.288886551e-06	1.0
28	0	-87.28699493	107.1060028	-5.951332092	-7.203861969e-06	-8.529191859e-07	1.0
29	0	-87.28699493	107.1060028	-6.010776997	-3.245927473e-07	1.402103521e-06	1.0
[EndOfFile]
